<svg width="52" height="52" viewBox="0 0 52 52" fill="none" xmlns="http://www.w3.org/2000/svg">
<path fill-rule="evenodd" clip-rule="evenodd" d="M39 0C46.1797 0 52 5.8203 52 13V39C52 46.1797 46.1797 52 39 52H13C5.8203 52 0 46.1797 0 39V13C0 5.8203 5.8203 0 13 0H39ZM26 12C24.3431 12 23 13.3431 23 15V22H16C14.3431 22 13 23.3431 13 25C13 26.6569 14.3431 28 16 28H23V35C23 36.6569 24.3431 38 26 38C27.6569 38 29 36.6569 29 35V28H36C37.6569 28 39 26.6569 39 25C39 23.3431 37.6569 22 36 22H29V15C29 13.3431 27.6569 12 26 12Z" fill="#1F2F4A"/>
</svg>
