<svg width="54" height="54" viewBox="0 0 54 54" fill="none" xmlns="http://www.w3.org/2000/svg">
<path d="M27 13C30.8228 13 34.287 14.5329 36.8135 17.0166L26.9365 27.6016L23.1934 23.5898C22.0631 22.3785 20.1646 22.3131 18.9531 23.4434C17.7421 24.5737 17.6766 26.4713 18.8066 27.6826L24.7441 34.0469C25.3115 34.6548 26.1059 35 26.9375 35C27.7691 35 28.5635 34.6548 29.1309 34.0469L40.1631 22.2227C40.7043 23.7135 41 25.3222 41 27C41 34.732 34.732 41 27 41C19.268 41 13 34.732 13 27C13 19.268 19.268 13 27 13Z" fill="#1F2F4A"/>
<path fill-rule="evenodd" clip-rule="evenodd" d="M27 0C41.9117 0 54 12.0883 54 27C54 41.9117 41.9117 54 27 54C12.0883 54 0 41.9117 0 27C0 12.0883 12.0883 0 27 0ZM27 6C15.402 6 6 15.402 6 27C6 38.598 15.402 48 27 48C38.598 48 48 38.598 48 27C48 15.402 38.598 6 27 6Z" fill="#1F2F4A"/>
</svg>
