<svg width="57" height="49" viewBox="0 0 57 49" fill="none" xmlns="http://www.w3.org/2000/svg">
<path fill-rule="evenodd" clip-rule="evenodd" d="M26.9756 0.518555C27.8742 -0.172686 29.1258 -0.172661 30.0244 0.518555L56.0244 20.5186C57.1187 21.3604 57.3233 22.9301 56.4815 24.0244C55.6396 25.1186 54.0699 25.3232 52.9756 24.4814L51 22.9609V46.5C51 47.8807 49.8807 49 48.5 49H8.50001C7.11934 49 6.00001 47.8807 6.00001 46.5V22.9609L4.02443 24.4814C2.93009 25.3232 1.36042 25.1187 0.518569 24.0244C-0.323183 22.9301 -0.118606 21.3604 0.9756 20.5186L12 12.0381V2.5C12 1.11931 13.1193 4.2005e-05 14.5 0C15.8807 0 17 1.11929 17 2.5V8.19141L26.9756 0.518555ZM34 21C31.9168 21 30.25 22.227 29 23.8633C27.75 22.227 26.0833 21 24 21C21.5 21 19 22.6365 19 25.9092C19.0001 31.6364 27.3334 37.3636 29 39C30.6667 37.3636 38.9999 31.6364 39 25.9092C39 22.6365 36.5 21 34 21Z" fill="#1F2F4A"/>
</svg>
