<svg width="60" height="54" viewBox="0 0 60 54" fill="none" xmlns="http://www.w3.org/2000/svg">
<path fill-rule="evenodd" clip-rule="evenodd" d="M22 0C22.5304 0 23.039 0.210865 23.4141 0.585938C23.7891 0.96101 24 1.46957 24 2V50H27V8C27 6.89543 27.8954 6 29 6H43C44.1046 6 45 6.89543 45 8V50H49V12C49 10.8954 49.8954 10 51 10H54C55.1046 10 56 10.8954 56 12V50H59C59.5523 50 60 50.8954 60 52C60 53.1046 59.5523 54 59 54H1C0.447715 54 0 53.1046 0 52C0 50.8954 0.447715 50 1 50H3V2C3 1.46957 3.21086 0.96101 3.58594 0.585938C3.96101 0.210865 4.46957 0 5 0H22ZM9 49H17V41H9V49ZM31 49H41V41H31V49ZM9.5 24C8.67157 24 8 24.6716 8 25.5C8 26.3284 8.67157 27 9.5 27H16.5C17.3284 27 18 26.3284 18 25.5C18 24.6716 17.3284 24 16.5 24H9.5Z" fill="#1E1E44"/>
</svg>
